<svg version="1.2" baseProfile="tiny-ps" xmlns="http://www.w3.org/2000/svg" viewBox="0 0 29 31" width="29" height="31">
	<title>google-play-icon-svg</title>
	<defs>
		<linearGradient id="grd1" gradientUnits="userSpaceOnUse"  x1="15.094" y1="1.87" x2="-4.896" y2="21.86">
			<stop offset="0" stop-color="#008eff"  />
			<stop offset="0.01" stop-color="#008fff"  />
			<stop offset="0.26" stop-color="#00acff"  />
			<stop offset="0.51" stop-color="#00c0ff"  />
			<stop offset="0.76" stop-color="#00cdff"  />
			<stop offset="1" stop-color="#00d1ff"  />
		</linearGradient>
		<linearGradient id="grd2" gradientUnits="userSpaceOnUse"  x1="27.454" y1="15.32" x2="-1.366" y2="15.32">
			<stop offset="0" stop-color="#ffd800"  />
			<stop offset="1" stop-color="#ff8a00"  />
		</linearGradient>
		<linearGradient id="grd3" gradientUnits="userSpaceOnUse"  x1="18.694" y1="18.05" x2="-8.406" y2="45.15">
			<stop offset="0" stop-color="#ff3a44"  />
			<stop offset="1" stop-color="#b11162"  />
		</linearGradient>
		<linearGradient id="grd4" gradientUnits="userSpaceOnUse"  x1="-2.186" y1="-8.29" x2="9.924" y2="3.81">
			<stop offset="0" stop-color="#328e71"  />
			<stop offset="0.07" stop-color="#2d9571"  />
			<stop offset="0.48" stop-color="#15bd74"  />
			<stop offset="0.8" stop-color="#06d575"  />
			<stop offset="1" stop-color="#00de76"  />
		</linearGradient>
	</defs>
	<style>
		tspan { white-space:pre }
		.shp0 { fill: url(#grd1) } 
		.shp1 { fill: url(#grd2) } 
		.shp2 { fill: url(#grd3) } 
		.shp3 { fill: url(#grd4) } 
		.shp4 { opacity: 0.102;fill: #000000 } 
		.shp5 { opacity: 0.071;fill: #000000 } 
		.shp6 { opacity: 0.302;fill: #ffffff } 
	</style>
	<g >
		<g >
			<path class="shp0" d="M1.55 0.48C1.46 0.6 1.37 0.72 1.3 0.85C1.23 0.98 1.17 1.12 1.12 1.26C1.07 1.41 1.04 1.55 1.02 1.7C1 1.85 1 2 1 2.15L1 28.49C1 28.64 1 28.79 1.02 28.94C1.04 29.09 1.07 29.23 1.12 29.38C1.17 29.52 1.23 29.66 1.3 29.79C1.37 29.92 1.46 30.04 1.55 30.16L1.64 30.25L16.39 15.49L16.39 15.14L1.64 0.39L1.55 0.48Z" />
			<path class="shp1" d="M21.31 20.41L16.39 15.49L16.39 15.14L21.31 10.23L21.42 10.29L27.25 13.6C28.92 14.54 28.92 16.09 27.25 17.04L21.42 20.35L21.31 20.41Z" />
			<path class="shp2" d="M21.42 20.35L16.42 15.35L1.55 30.16C1.72 30.3 1.92 30.41 2.12 30.49C2.33 30.57 2.55 30.61 2.77 30.61C2.99 30.62 3.21 30.59 3.42 30.53C3.63 30.46 3.83 30.36 4 30.23L21.39 20.35" />
			<path class="shp3" d="M21.42 10.29L4 0.4C3.83 0.26 3.63 0.16 3.42 0.09C3.21 0.02 2.99 -0.01 2.76 0C2.54 0.01 2.32 0.05 2.12 0.14C1.91 0.22 1.72 0.33 1.55 0.48L16.39 15.32L21.42 10.29Z" />
			<path class="shp4" d="M21.31 20.24L4 30.06C3.83 30.19 3.64 30.29 3.44 30.35C3.24 30.42 3.02 30.46 2.81 30.46C2.6 30.46 2.38 30.42 2.18 30.35C1.98 30.29 1.79 30.19 1.61 30.06L1.52 30.15L1.61 30.24C1.79 30.37 1.98 30.47 2.18 30.53C2.38 30.6 2.6 30.64 2.81 30.64C3.02 30.64 3.24 30.6 3.44 30.53C3.64 30.47 3.83 30.37 4 30.24L21.39 20.36L21.31 20.24Z" />
			<path class="shp5" d="M1.55 30C1.46 29.88 1.37 29.76 1.3 29.63C1.23 29.49 1.17 29.36 1.12 29.21C1.07 29.07 1.04 28.92 1.02 28.77C1 28.62 1 28.47 1 28.32L1 28.49C1 28.64 1 28.79 1.02 28.94C1.04 29.09 1.07 29.23 1.12 29.38C1.17 29.52 1.23 29.66 1.3 29.79C1.37 29.92 1.46 30.04 1.55 30.16L1.64 30.07L1.55 30Z" />
			<path class="shp5" d="M27.25 16.86L21.31 20.24L21.42 20.35L27.25 17C27.42 16.93 27.58 16.83 27.73 16.71C27.87 16.59 28 16.46 28.11 16.31C28.22 16.16 28.31 15.99 28.38 15.82C28.44 15.65 28.49 15.47 28.5 15.28C28.47 15.45 28.42 15.62 28.34 15.78C28.27 15.93 28.18 16.08 28.07 16.22C27.96 16.36 27.84 16.48 27.7 16.59C27.56 16.7 27.41 16.79 27.25 16.86Z" />
			<path class="shp6" d="M4 0.58L27.25 13.77C27.41 13.84 27.56 13.93 27.7 14.03C27.83 14.14 27.96 14.26 28.06 14.4C28.17 14.53 28.26 14.68 28.34 14.83C28.41 14.99 28.47 15.15 28.5 15.32C28.49 15.13 28.44 14.95 28.38 14.78C28.31 14.6 28.22 14.44 28.11 14.29C28 14.14 27.88 14 27.73 13.89C27.59 13.77 27.42 13.67 27.25 13.6L4 0.4C2.36 -0.54 1 0.24 1 2.15L1 2.32C1 0.42 2.36 -0.37 4 0.58Z" />
		</g>
	</g>
</svg>